# Blender v2.92.0 OBJ File: 'TrophyCaseGD4.blend'
# www.blender.org
mtllib TrophyCaseGD4.mtl.mtl
o Cube
v 2.316508 0.349385 -1.080360
v 2.316508 -0.349385 -1.080360
v 2.316508 0.349385 1.080570
v 2.316508 -0.349385 1.080570
v -2.316608 0.349385 -1.080360
v -2.316608 -0.349385 -1.080360
v -2.316608 0.349385 1.080570
v -2.316608 -0.349385 1.080570
v 2.208661 0.349385 0.881674
v -2.208761 0.349385 0.881674
v 2.208661 0.349385 -0.881464
v -2.208761 0.349385 -0.881464
v 2.208661 4.278434 0.881674
v -2.208761 4.278434 0.881674
v 2.208661 4.278434 -0.881464
v -2.208761 4.278434 -0.881464
v 2.332128 4.278434 0.894277
v -2.332228 4.278434 0.894277
v 2.332128 4.278434 -0.894067
v -2.332228 4.278434 -0.894067
v 2.332128 4.890839 0.894277
v -2.332228 4.890839 0.894277
v 2.332128 4.890839 -0.894067
v -2.332228 4.890839 -0.894067
v 2.169868 4.414209 0.843349
v -2.169969 4.414209 0.843349
v 2.169868 4.825228 0.843349
v -2.169969 4.825228 0.843349
v -2.264401 4.306569 0.812117
v -2.264401 4.306569 -0.811908
v -2.264401 4.862704 0.812117
v -2.264401 4.862704 -0.811908
v -2.192529 4.296775 -0.812038
v 2.192429 4.296775 -0.812038
v -2.192529 4.872497 -0.812038
v 2.192429 4.872497 -0.812038
v 2.231152 4.304963 -0.816597
v 2.231152 4.304963 0.816807
v 2.231152 4.864310 -0.816597
v 2.231152 4.864310 0.816807
v 2.187881 0.076318 1.115782
v 2.187881 0.903769 1.115782
v 2.187881 0.076318 0.889390
v 2.187881 0.903769 0.889390
v 2.372041 0.076318 1.115782
v 2.372041 0.903769 1.115782
v 2.372041 0.076318 0.889390
v 2.372041 0.903769 0.889390
v 2.187881 3.294599 1.115782
v 2.187881 3.294599 0.889390
v 2.372041 3.294599 1.115782
v 2.372041 3.294599 0.889390
v 2.187881 4.294044 1.115782
v 2.187881 4.294044 0.889390
v 2.372041 4.294044 1.115782
v 2.372041 4.294044 0.889390
v 2.187881 4.894163 1.115782
v 2.187881 4.894163 0.889390
v 2.372041 4.894163 1.115782
v 2.372041 4.894163 0.889390
v -2.366306 0.076318 1.115782
v -2.366306 0.903769 1.115782
v -2.366306 0.076318 0.889390
v -2.366306 0.903769 0.889390
v -2.182146 0.076318 1.115782
v -2.182146 0.903769 1.115782
v -2.182146 0.076318 0.889390
v -2.182146 0.903769 0.889390
v -2.366306 3.294599 1.115782
v -2.366306 3.294599 0.889390
v -2.182146 3.294599 1.115782
v -2.182146 3.294599 0.889390
v -2.366306 4.294044 1.115782
v -2.366306 4.294044 0.889390
v -2.182146 4.294044 1.115782
v -2.182146 4.294044 0.889390
v -2.366306 4.894163 1.115782
v -2.366306 4.894163 0.889390
v -2.182146 4.894163 1.115782
v -2.182146 4.894163 0.889390
v -2.366306 0.076318 -0.886027
v -2.366306 0.903769 -0.886027
v -2.366306 0.076318 -1.112419
v -2.366306 0.903769 -1.112419
v -2.182146 0.076318 -0.886027
v -2.182146 0.903769 -0.886027
v -2.182146 0.076318 -1.112419
v -2.182146 0.903769 -1.112419
v -2.366306 3.294599 -0.886027
v -2.366306 3.294599 -1.112419
v -2.182146 3.294599 -0.886027
v -2.182146 3.294599 -1.112419
v -2.366306 4.294044 -0.886027
v -2.366306 4.294044 -1.112419
v -2.182146 4.294044 -0.886027
v -2.182146 4.294044 -1.112419
v -2.366306 4.894163 -0.886027
v -2.366306 4.894163 -1.112419
v -2.182146 4.894163 -0.886027
v -2.182146 4.894163 -1.112419
v 2.176652 0.076318 -0.886027
v 2.176652 0.903769 -0.886027
v 2.176652 0.076318 -1.112419
v 2.176652 0.903769 -1.112419
v 2.360812 0.076318 -0.886027
v 2.360812 0.903769 -0.886027
v 2.360812 0.076318 -1.112419
v 2.360812 0.903769 -1.112419
v 2.176652 3.294599 -0.886027
v 2.176652 3.294599 -1.112419
v 2.360812 3.294599 -0.886027
v 2.360812 3.294599 -1.112419
v 2.176652 4.294044 -0.886027
v 2.176652 4.294044 -1.112419
v 2.360812 4.294044 -0.886027
v 2.360812 4.294044 -1.112419
v 2.176652 4.894163 -0.886027
v 2.176652 4.894163 -1.112419
v 2.360812 4.894163 -0.886027
v 2.360812 4.894163 -1.112419
v -2.182146 4.607953 0.889390
v -2.182146 4.607953 1.115782
v -2.366306 4.607953 1.115782
v -2.366306 4.607953 0.889390
v 2.372041 4.598720 0.889390
v 2.372041 4.598720 1.115782
v 2.187881 4.598720 1.115782
v 2.187881 4.598720 0.889390
v 2.360812 4.602772 -1.112419
v 2.360812 4.602623 -0.886027
v 2.176652 4.626010 -0.886027
v 2.176652 4.626010 -1.112419
v -2.182146 4.628561 -1.112419
v -2.182146 4.628561 -0.886027
v -2.366306 4.628561 -0.886027
v -2.366306 4.628561 -1.112419
v -2.366306 0.354787 1.115782
v -2.366306 0.354787 0.889390
v -2.182146 0.354787 0.889390
v -2.182146 0.354787 1.115782
v 2.187881 0.354787 1.115782
v 2.187881 0.354787 0.889390
v 2.372041 0.354787 0.889390
v 2.372041 0.354787 1.115782
v 2.176652 0.349579 -0.886027
v 2.176652 0.349579 -1.112419
v 2.360812 0.349579 -1.112419
v 2.360812 0.349579 -0.886027
v -2.182146 0.360443 -1.112419
v -2.182146 0.360443 -0.886027
v -2.366306 0.360443 -0.886027
v -2.366306 0.360443 -1.112419
vt 0.625000 0.250000
vt 0.625000 0.000000
vt 0.625000 0.000000
vt 0.625000 0.250000
vt 0.375000 0.750000
vt 0.625000 0.750000
vt 0.625000 1.000000
vt 0.375000 1.000000
vt 0.375000 0.000000
vt 0.375000 0.250000
vt 0.125000 0.500000
vt 0.375000 0.500000
vt 0.125000 0.750000
vt 0.625000 0.500000
vt 0.625000 0.500000
vt 0.625000 0.750000
vt 0.625000 1.000000
vt 0.625000 0.250000
vt 0.625000 0.000000
vt 0.625000 0.000000
vt 0.625000 0.250000
vt 0.625000 0.500000
vt 0.625000 0.250000
vt 0.625000 0.500000
vt 0.625000 1.000000
vt 0.625000 0.750000
vt 0.625000 0.750000
vt 0.625000 1.000000
vt 0.625000 0.500000
vt 0.625000 0.500000
vt 0.875000 0.500000
vt 0.875000 0.750000
vt 0.625000 0.750000
vt 0.625000 0.750000
vt 0.625000 0.500000
vt 0.625000 0.250000
vt 0.625000 0.250000
vt 0.625000 0.250000
vt 0.625000 0.750000
vt 0.625000 0.750000
vt 0.625000 1.000000
vt 0.625000 1.000000
vt 0.875000 0.750000
vt 0.625000 0.000000
vt 0.625000 0.000000
vt 0.625000 0.000000
vt 0.625000 0.000000
vt 0.625000 0.000000
vt 0.875000 0.500000
vt 0.875000 0.750000
vt 0.625000 0.250000
vt 0.625000 0.500000
vt 0.875000 0.500000
vt 0.625000 0.750000
vt 0.625000 0.500000
vt 0.459135 0.000000
vt 0.625000 0.000000
vt 0.625000 0.250000
vt 0.459135 0.250000
vt 0.625000 0.500000
vt 0.459135 0.500000
vt 0.625000 0.750000
vt 0.459135 0.750000
vt 0.625000 1.000000
vt 0.459135 1.000000
vt 0.125000 0.500000
vt 0.375000 0.500000
vt 0.375000 0.750000
vt 0.125000 0.750000
vt 0.625000 0.000000
vt 0.625000 0.250000
vt 0.625000 0.500000
vt 0.625000 0.250000
vt 0.625000 0.500000
vt 0.625000 0.750000
vt 0.625000 1.000000
vt 0.625000 0.750000
vt 0.625000 0.500000
vt 0.625000 0.500000
vt 0.625000 0.750000
vt 0.625000 0.750000
vt 0.625000 0.000000
vt 0.625000 1.000000
vt 0.875000 0.500000
vt 0.875000 0.750000
vt 0.625000 0.250000
vt 0.625000 0.000000
vt 0.625000 0.000000
vt 0.625000 0.250000
vt 0.625000 1.000000
vt 0.625000 1.000000
vt 0.625000 0.250000
vt 0.625000 0.500000
vt 0.459135 0.000000
vt 0.625000 0.000000
vt 0.625000 0.250000
vt 0.459135 0.250000
vt 0.625000 0.500000
vt 0.459135 0.500000
vt 0.625000 0.750000
vt 0.459135 0.750000
vt 0.625000 1.000000
vt 0.459135 1.000000
vt 0.125000 0.500000
vt 0.375000 0.500000
vt 0.375000 0.750000
vt 0.125000 0.750000
vt 0.625000 0.000000
vt 0.625000 0.250000
vt 0.625000 0.500000
vt 0.625000 0.250000
vt 0.625000 0.500000
vt 0.625000 0.750000
vt 0.625000 1.000000
vt 0.625000 0.750000
vt 0.625000 0.500000
vt 0.625000 0.500000
vt 0.625000 0.750000
vt 0.625000 0.750000
vt 0.625000 0.000000
vt 0.625000 1.000000
vt 0.625000 0.500000
vt 0.875000 0.500000
vt 0.875000 0.750000
vt 0.625000 0.750000
vt 0.625000 0.250000
vt 0.625000 0.000000
vt 0.625000 0.000000
vt 0.625000 0.250000
vt 0.625000 1.000000
vt 0.625000 1.000000
vt 0.460843 0.000000
vt 0.625000 0.000000
vt 0.625000 0.250000
vt 0.460843 0.250000
vt 0.625000 0.500000
vt 0.460843 0.500000
vt 0.625000 0.750000
vt 0.460843 0.750000
vt 0.625000 1.000000
vt 0.460843 1.000000
vt 0.125000 0.500000
vt 0.375000 0.500000
vt 0.375000 0.750000
vt 0.125000 0.750000
vt 0.625000 0.000000
vt 0.625000 0.250000
vt 0.625000 0.500000
vt 0.625000 0.250000
vt 0.625000 0.500000
vt 0.625000 0.750000
vt 0.625000 1.000000
vt 0.625000 0.750000
vt 0.625000 0.500000
vt 0.625000 0.500000
vt 0.625000 0.750000
vt 0.625000 0.750000
vt 0.625000 0.000000
vt 0.625000 1.000000
vt 0.875000 0.500000
vt 0.875000 0.750000
vt 0.625000 0.250000
vt 0.625000 0.000000
vt 0.625000 0.000000
vt 0.625000 0.250000
vt 0.875000 0.750000
vt 0.625000 0.750000
vt 0.457561 0.000000
vt 0.625000 0.000000
vt 0.625000 0.250000
vt 0.457561 0.250000
vt 0.625000 0.500000
vt 0.457561 0.500000
vt 0.625000 0.750000
vt 0.457561 0.750000
vt 0.625000 1.000000
vt 0.457561 1.000000
vt 0.125000 0.500000
vt 0.375000 0.500000
vt 0.375000 0.750000
vt 0.125000 0.750000
vt 0.625000 0.000000
vt 0.625000 0.250000
vt 0.625000 0.500000
vt 0.625000 0.250000
vt 0.625000 0.500000
vt 0.625000 0.750000
vt 0.625000 1.000000
vt 0.625000 0.750000
vt 0.625000 0.500000
vt 0.625000 0.500000
vt 0.625000 0.750000
vt 0.625000 0.750000
vt 0.625000 0.000000
vt 0.625000 1.000000
vt 0.875000 0.500000
vt 0.875000 0.750000
vt 0.625000 1.000000
vt 0.625000 1.000000
vt 0.625000 1.000000
vt 0.625000 1.000000
vt 0.625000 0.250000
vt 0.625000 0.250000
vt 0.625000 0.500000
vt 0.625000 0.750000
vt 0.625000 0.000000
vt 0.625000 1.000000
vt 0.875000 0.500000
vt 0.875000 0.750000
vt 0.625000 0.250000
vt 0.625000 0.250000
vt 0.625000 0.000000
vt 0.625000 0.000000
vt 0.625000 0.000000
vt 0.625000 0.750000
vt 0.625000 1.000000
vt 0.625000 0.500000
vt 0.875000 0.500000
vt 0.625000 0.250000
vt 0.375000 1.000000
vt 0.459135 0.500000
vt 0.375000 0.500000
vt 0.375000 0.250000
vt 0.375000 0.000000
vt 0.375000 1.000000
vt 0.375000 0.250000
vt 0.375000 0.000000
vt 0.375000 0.750000
vt 0.459135 0.750000
vt 0.375000 1.000000
vt 0.375000 0.250000
vt 0.125000 0.750000
vt 0.125000 0.500000
vt 0.457561 1.000000
vt 0.375000 1.000000
vt 0.375000 0.250000
vt 0.457561 0.250000
vt 0.457561 0.000000
vt 0.375000 1.000000
vt 0.375000 0.250000
vt 0.375000 0.000000
vn 0.0000 1.0000 0.0000
vn 0.0000 0.0000 1.0000
vn -1.0000 0.0000 0.0000
vn 0.0000 -1.0000 0.0000
vn 1.0000 0.0000 0.0000
vn 0.0000 0.0000 -1.0000
vn 0.0000 0.9759 -0.2182
vn 0.2541 -0.9672 0.0000
vn -0.7712 0.0000 0.6366
vn -0.2995 0.0000 0.9541
vn 0.0000 -0.6132 0.7899
vn 0.2995 0.0000 0.9541
vn 0.0000 0.3512 0.9363
vn -0.3831 -0.9237 0.0000
vn -0.7712 0.0000 -0.6366
vn -0.3831 0.9237 0.0000
vn 0.5063 0.0000 -0.8623
vn -0.5063 0.0000 -0.8623
vn 0.0000 -0.9759 -0.2182
vn 0.6087 0.0000 -0.7934
vn 0.2541 0.9672 0.0000
vn 0.6087 0.0000 0.7934
vn -0.0634 -0.9980 -0.0084
vn -0.0021 -1.0000 0.0000
vn -0.0006 -1.0000 0.0000
vn 0.0000 -0.9999 -0.0116
vn -1.0000 0.0000 0.0063
vn 1.0000 0.0000 -0.0063
vn 0.0025 1.0000 0.0000
usemtl Material
s off
f 5/1/1 7/2/1 10/3/1 12/4/1
f 4/5/2 3/6/2 7/7/2 8/8/2
f 8/9/3 7/2/3 5/1/3 6/10/3
f 6/11/4 2/12/4 4/5/4 8/13/4
f 2/12/5 1/14/5 3/6/5 4/5/5
f 6/10/6 5/1/6 1/14/6 2/12/6
f 3/6/1 1/14/1 11/15/1 9/16/1
f 1/14/1 5/1/1 12/4/1 11/15/1
f 7/7/1 3/6/1 9/16/1 10/17/1
f 16/18/4 14/19/4 18/20/4 20/21/4
f 19/22/7 20/21/7 33/23/7 34/24/7
f 14/25/4 13/26/4 17/27/4 18/28/4
f 15/29/4 16/18/4 20/21/4 19/22/4
f 13/26/4 15/29/4 19/22/4 17/27/4
f 23/30/1 24/31/1 22/32/1 21/33/1
f 23/30/8 21/33/8 40/34/8 39/35/8
f 24/36/9 20/21/9 30/37/9 32/38/9
f 17/27/10 21/33/10 27/39/10 25/40/10
f 26/41/2 25/40/2 27/39/2 28/42/2
f 21/33/11 22/32/11 28/43/11 27/39/11
f 22/44/12 18/20/12 26/45/12 28/46/12
f 18/28/13 17/27/13 25/40/13 26/41/13
f 30/37/3 29/47/3 31/48/3 32/38/3
f 22/32/14 24/31/14 32/49/14 31/50/14
f 18/20/15 22/44/15 31/48/15 29/47/15
f 20/21/16 18/20/16 29/47/16 30/37/16
f 34/24/6 33/23/6 35/51/6 36/52/6
f 20/21/17 24/36/17 35/51/17 33/23/17
f 23/30/18 19/22/18 34/24/18 36/52/18
f 24/31/19 23/30/19 36/52/19 35/53/19
f 38/54/5 37/55/5 39/35/5 40/34/5
f 21/33/20 17/27/20 38/54/20 40/34/20
f 17/27/21 19/22/21 37/55/21 38/54/21
f 19/22/22 23/30/22 39/35/22 37/55/22
f 141/56/3 42/57/3 44/58/3 142/59/3
f 142/59/6 44/58/6 48/60/6 143/61/6
f 143/61/5 48/60/5 46/62/5 144/63/5
f 144/63/2 46/62/2 42/64/2 141/65/2
f 43/66/4 47/67/4 45/68/4 41/69/4
f 44/58/3 42/57/3 49/70/3 50/71/3
f 52/72/6 50/71/6 54/73/6 56/74/6
f 42/64/2 46/62/2 51/75/2 49/76/2
f 48/60/6 44/58/6 50/71/6 52/72/6
f 46/62/5 48/60/5 52/72/5 51/75/5
f 126/77/5 125/78/5 60/79/5 59/80/5
f 51/75/5 52/72/5 56/74/5 55/81/5
f 50/71/3 49/70/3 53/82/3 54/73/3
f 49/76/2 51/75/2 55/81/2 53/83/2
f 60/79/1 58/84/1 57/85/1 59/80/1
f 128/86/3 127/87/3 57/88/3 58/89/3
f 127/90/2 126/77/2 59/80/2 57/91/2
f 125/78/23 128/86/23 131/92/23 130/93/23
f 137/94/3 62/95/3 64/96/3 138/97/3
f 138/97/6 64/96/6 68/98/6 139/99/6
f 139/99/5 68/98/5 66/100/5 140/101/5
f 140/101/2 66/100/2 62/102/2 137/103/2
f 63/104/4 67/105/4 65/106/4 61/107/4
f 64/96/3 62/95/3 69/108/3 70/109/3
f 72/110/6 70/109/6 74/111/6 76/112/6
f 62/102/2 66/100/2 71/113/2 69/114/2
f 68/98/6 64/96/6 70/109/6 72/110/6
f 66/100/5 68/98/5 72/110/5 71/113/5
f 122/115/24 121/116/24 128/117/24 127/118/24
f 71/113/5 72/110/5 76/112/5 75/119/5
f 70/109/3 69/108/3 73/120/3 74/111/3
f 69/114/2 71/113/2 75/119/2 73/121/2
f 80/122/1 78/123/1 77/124/1 79/125/1
f 124/126/3 123/127/3 77/128/3 78/129/3
f 123/130/2 122/115/2 79/125/2 77/131/2
f 121/116/6 124/126/6 78/129/6 80/122/6
f 151/132/3 82/133/3 84/134/3 152/135/3
f 152/135/6 84/134/6 88/136/6 149/137/6
f 149/137/5 88/136/5 86/138/5 150/139/5
f 150/139/2 86/138/2 82/140/2 151/141/2
f 83/142/4 87/143/4 85/144/4 81/145/4
f 84/134/3 82/133/3 89/146/3 90/147/3
f 92/148/6 90/147/6 94/149/6 96/150/6
f 82/140/2 86/138/2 91/151/2 89/152/2
f 88/136/6 84/134/6 90/147/6 92/148/6
f 86/138/5 88/136/5 92/148/5 91/151/5
f 134/153/5 133/154/5 100/155/5 99/156/5
f 91/151/5 92/148/5 96/150/5 95/157/5
f 90/147/3 89/146/3 93/158/3 94/149/3
f 89/152/2 91/151/2 95/157/2 93/159/2
f 100/155/1 98/160/1 97/161/1 99/156/1
f 136/162/3 135/163/3 97/164/3 98/165/3
f 99/156/1 97/161/1 78/166/1 80/167/1
f 133/154/6 136/162/6 98/165/6 100/155/6
f 145/168/3 102/169/3 104/170/3 146/171/3
f 146/171/6 104/170/6 108/172/6 147/173/6
f 147/173/5 108/172/5 106/174/5 148/175/5
f 148/175/2 106/174/2 102/176/2 145/177/2
f 103/178/4 107/179/4 105/180/4 101/181/4
f 104/170/3 102/169/3 109/182/3 110/183/3
f 112/184/6 110/183/6 114/185/6 116/186/6
f 102/176/2 106/174/2 111/187/2 109/188/2
f 108/172/6 104/170/6 110/183/6 112/184/6
f 106/174/5 108/172/5 112/184/5 111/187/5
f 130/189/5 129/190/5 120/191/5 119/192/5
f 111/187/5 112/184/5 116/186/5 115/193/5
f 110/183/3 109/182/3 113/194/3 114/185/3
f 109/188/2 111/187/2 115/193/2 113/195/2
f 120/191/1 118/196/1 117/197/1 119/192/1
f 131/198/2 117/199/2 99/200/2 134/201/2
f 131/198/2 130/189/2 119/192/2 117/199/2
f 129/190/6 132/202/6 118/203/6 120/191/6
f 76/112/6 74/111/6 124/126/6 121/116/6
f 73/121/2 75/119/2 122/115/2 123/130/2
f 74/111/3 73/120/3 123/127/3 124/126/3
f 75/119/5 76/112/5 121/116/5 122/115/5
f 56/74/6 54/73/6 128/86/6 125/78/6
f 53/83/2 55/81/2 126/77/2 127/90/2
f 54/73/3 53/82/3 127/87/3 128/86/3
f 55/81/5 56/74/5 125/78/5 126/77/5
f 121/116/6 80/122/6 58/204/6 128/117/6
f 79/125/2 122/115/2 127/118/2 57/205/2
f 80/122/1 79/125/1 57/205/1 58/204/1
f 116/186/6 114/185/6 132/202/6 129/190/6
f 113/195/2 115/193/2 130/189/2 131/198/2
f 114/185/3 113/194/3 131/206/3 132/202/3
f 115/193/5 116/186/5 129/190/5 130/189/5
f 96/150/6 94/149/6 136/162/6 133/154/6
f 93/159/2 95/157/2 134/153/2 135/207/2
f 94/149/3 93/158/3 135/163/3 136/162/3
f 95/157/5 96/150/5 133/154/5 134/153/5
f 117/197/1 118/196/1 100/208/1 99/209/1
f 118/203/6 132/202/6 133/210/6 100/211/6
f 132/202/25 131/206/25 134/212/25 133/210/25
f 97/164/3 135/163/3 124/213/3 78/214/3
f 135/207/26 134/153/26 121/215/26 124/216/26
f 134/153/5 99/156/5 80/167/5 121/215/5
f 58/84/1 60/79/1 119/217/1 117/218/1
f 128/86/27 58/89/27 117/219/27 131/92/27
f 60/79/28 125/78/28 130/93/28 119/217/28
f 65/106/2 140/101/2 137/103/2 61/220/2
f 67/105/6 139/99/6 142/221/6 43/222/6
f 63/223/6 138/97/6 139/99/6 67/105/6
f 61/224/3 137/94/3 138/97/3 63/223/3
f 45/68/2 144/63/2 141/65/2 41/225/2
f 47/67/5 143/61/5 144/63/5 45/68/5
f 43/226/6 142/59/6 143/61/6 47/67/6
f 41/227/3 141/56/3 142/59/3 43/226/3
f 140/101/2 65/106/2 41/228/2 141/229/2
f 65/106/4 67/105/4 43/222/4 41/228/4
f 139/99/1 140/101/1 141/229/1 142/221/1
f 105/180/2 148/175/2 145/177/2 101/230/2
f 107/179/5 147/173/5 148/175/5 105/180/5
f 103/231/6 146/171/6 147/173/6 107/179/6
f 103/178/4 101/181/4 85/232/4 87/233/4
f 101/230/2 145/177/2 150/234/2 85/235/2
f 146/171/6 103/231/6 87/236/6 149/237/6
f 145/168/29 146/171/29 149/237/29 150/238/29
f 85/144/2 150/139/2 151/141/2 81/239/2
f 87/143/5 149/137/5 150/139/5 85/144/5
f 83/240/6 152/135/6 149/137/6 87/143/6
f 81/241/3 151/132/3 152/135/3 83/240/3
o Cube.001
v -2.193511 3.295991 0.871101
v -2.193511 3.249944 0.871101
v -2.193511 3.295991 -0.871101
v -2.193511 3.249944 -0.871101
v 2.177759 3.295991 0.871101
v 2.177759 3.249944 0.871101
v 2.177759 3.295991 -0.871101
v 2.177759 3.249944 -0.871101
v -2.193511 2.035898 0.871101
v -2.193511 1.989852 0.871101
v -2.193511 2.035898 -0.871101
v -2.193511 1.989852 -0.871101
v 2.177759 2.035898 0.871101
v 2.177759 1.989852 0.871101
v 2.177759 2.035898 -0.871101
v 2.177759 1.989852 -0.871101
v -2.193511 1.019949 0.871101
v -2.193511 0.973902 0.871101
v -2.193511 1.019949 -0.871101
v -2.193511 0.973902 -0.871101
v 2.177759 1.019949 0.871101
v 2.177759 0.973902 0.871101
v 2.177759 1.019949 -0.871101
v 2.177759 0.973902 -0.871101
vt 0.375000 0.000000
vt 0.625000 0.000000
vt 0.625000 0.250000
vt 0.375000 0.250000
vt 0.625000 0.500000
vt 0.375000 0.500000
vt 0.625000 0.750000
vt 0.375000 0.750000
vt 0.625000 1.000000
vt 0.375000 1.000000
vt 0.125000 0.500000
vt 0.125000 0.750000
vt 0.875000 0.500000
vt 0.875000 0.750000
vt 0.375000 0.000000
vt 0.625000 0.000000
vt 0.625000 0.250000
vt 0.375000 0.250000
vt 0.625000 0.500000
vt 0.375000 0.500000
vt 0.625000 0.750000
vt 0.375000 0.750000
vt 0.625000 1.000000
vt 0.375000 1.000000
vt 0.125000 0.500000
vt 0.125000 0.750000
vt 0.875000 0.500000
vt 0.875000 0.750000
vt 0.375000 0.000000
vt 0.625000 0.000000
vt 0.625000 0.250000
vt 0.375000 0.250000
vt 0.625000 0.500000
vt 0.375000 0.500000
vt 0.625000 0.750000
vt 0.375000 0.750000
vt 0.625000 1.000000
vt 0.375000 1.000000
vt 0.125000 0.500000
vt 0.125000 0.750000
vt 0.875000 0.500000
vt 0.875000 0.750000
vn 1.0000 0.0000 0.0000
vn 0.0000 0.0000 1.0000
vn -1.0000 0.0000 0.0000
vn 0.0000 0.0000 -1.0000
vn 0.0000 -1.0000 0.0000
vn 0.0000 1.0000 0.0000
usemtl None
s off
f 153/242/30 154/243/30 156/244/30 155/245/30
f 155/245/31 156/244/31 160/246/31 159/247/31
f 159/247/32 160/246/32 158/248/32 157/249/32
f 157/249/33 158/248/33 154/250/33 153/251/33
f 155/252/34 159/247/34 157/249/34 153/253/34
f 160/246/35 156/254/35 154/255/35 158/248/35
f 161/256/30 162/257/30 164/258/30 163/259/30
f 163/259/31 164/258/31 168/260/31 167/261/31
f 167/261/32 168/260/32 166/262/32 165/263/32
f 165/263/33 166/262/33 162/264/33 161/265/33
f 163/266/34 167/261/34 165/263/34 161/267/34
f 168/260/35 164/268/35 162/269/35 166/262/35
f 169/270/30 170/271/30 172/272/30 171/273/30
f 171/273/31 172/272/31 176/274/31 175/275/31
f 175/275/32 176/274/32 174/276/32 173/277/32
f 173/277/33 174/276/33 170/278/33 169/279/33
f 171/280/34 175/275/34 173/277/34 169/281/34
f 176/274/35 172/282/35 170/283/35 174/276/35
